HIERARCHY
ROOT Hips
{
    OFFSET   0.000000   0.000000   0.000000
    CHANNELS 6 Xposition Yposition Zposition Zrotation Xrotation Yrotation
    JOINT Chest
    {
        OFFSET   0.000000   8.007230   0.000000
        CHANNELS 3 Zrotation Xrotation Yrotation
        JOINT Chest2
        {
            OFFSET   0.000000  22.077100   0.000000
            CHANNELS 3 Zrotation Xrotation Yrotation
            JOINT Neck
            {
                OFFSET   0.000000  23.255100   0.000000
                CHANNELS 3 Zrotation Xrotation Yrotation
                JOINT Head
                {
                    OFFSET   0.000000  14.370100   1.956600
                    CHANNELS 3 Zrotation Xrotation Yrotation
                    End Site
                    {
                        OFFSET   0.000000  19.566000   0.000000
                    }
                }
            }
            JOINT LeftCollar
            {
                OFFSET   3.911900  19.017000  -0.467063
                CHANNELS 3 Zrotation Xrotation Yrotation
                JOINT LeftShoulder
                {
                    OFFSET  10.383700   0.000000   0.000000
                    CHANNELS 3 Zrotation Xrotation Yrotation
                    JOINT LeftElbow
                    {
                        OFFSET  26.662100   0.001193   0.000980
                        CHANNELS 3 Zrotation Xrotation Yrotation
                        JOINT LeftWrist
                        {
                            OFFSET  28.869000  -0.000059  -0.000082
                            CHANNELS 3 Zrotation Xrotation Yrotation
                            JOINT LeftFinger0
                            {
                                OFFSET   2.044650  -2.323450   3.252850
                                CHANNELS 3 Zrotation Xrotation Yrotation
                                JOINT LeftFinger01
                                {
                                    OFFSET   3.088130   0.000000   0.000000
                                    CHANNELS 3 Zrotation Xrotation Yrotation
                                    JOINT LeftFinger02
                                    {
                                        OFFSET   2.639460   0.000000   0.000000
                                        CHANNELS 3 Zrotation Xrotation Yrotation
                                        End Site
                                        {
                                            OFFSET   2.582190   0.000000   0.000000
                                        }
                                    }
                                }
                            }
                            JOINT LeftFinger1
                            {
                                OFFSET   8.364480   0.000000   3.252850
                                CHANNELS 3 Zrotation Xrotation Yrotation
                                JOINT LeftFinger11
                                {
                                    OFFSET   4.646930   0.000000   0.000000
                                    CHANNELS 3 Zrotation Xrotation Yrotation
                                    JOINT LeftFinger12
                                    {
                                        OFFSET   2.323470   0.000000   0.000000
                                        CHANNELS 3 Zrotation Xrotation Yrotation
                                        End Site
                                        {
                                            OFFSET   2.273050   0.000000   0.000000
                                        }
                                    }
                                }
                            }
                            JOINT LeftFinger2
                            {
                                OFFSET   8.364490   0.000016   1.078090
                                CHANNELS 3 Zrotation Xrotation Yrotation
                                JOINT LeftFinger21
                                {
                                    OFFSET   5.111610   0.000000   0.000000
                                    CHANNELS 3 Zrotation Xrotation Yrotation
                                    JOINT LeftFinger22
                                    {
                                        OFFSET   2.788150   0.000016   0.000000
                                        CHANNELS 3 Zrotation Xrotation Yrotation
                                        End Site
                                        {
                                            OFFSET   2.727660   0.000000   0.000000
                                        }
                                    }
                                }
                            }
                            JOINT LeftFinger3
                            {
                                OFFSET   7.899780   0.000015  -1.078090
                                CHANNELS 3 Zrotation Xrotation Yrotation
                                JOINT LeftFinger31
                                {
                                    OFFSET   4.646930   0.000000   0.000000
                                    CHANNELS 3 Zrotation Xrotation Yrotation
                                    JOINT LeftFinger32
                                    {
                                        OFFSET   2.323470   0.000000   0.000000
                                        CHANNELS 3 Zrotation Xrotation Yrotation
                                        End Site
                                        {
                                            OFFSET   2.273050   0.000000   0.000000
                                        }
                                    }
                                }
                            }
                            JOINT LeftFinger4
                            {
                                OFFSET   7.435090   0.000000  -3.252850
                                CHANNELS 3 Zrotation Xrotation Yrotation
                                JOINT LeftFinger41
                                {
                                    OFFSET   3.717550   0.000000   0.000000
                                    CHANNELS 3 Zrotation Xrotation Yrotation
                                    JOINT LeftFinger42
                                    {
                                        OFFSET   1.858770   0.000000   0.000000
                                        CHANNELS 3 Zrotation Xrotation Yrotation
                                        End Site
                                        {
                                            OFFSET   1.818440   0.000000   0.000000
                                        }
                                    }
                                }
                            }
                        }
                    }
                }
            }
            JOINT RightCollar
            {
                OFFSET  -3.911910  19.017000  -0.467062
                CHANNELS 3 Zrotation Xrotation Yrotation
                JOINT RightShoulder
                {
                    OFFSET -10.383700   0.000014   0.000000
                    CHANNELS 3 Zrotation Xrotation Yrotation
                    JOINT RightElbow
                    {
                        OFFSET -26.662100   0.001225   0.001091
                        CHANNELS 3 Zrotation Xrotation Yrotation
                        JOINT RightWrist
                        {
                            OFFSET -28.869000  -0.000020  -0.000085
                            CHANNELS 3 Zrotation Xrotation Yrotation
                            JOINT RightFinger0
                            {
                                OFFSET  -2.044650  -2.323490   3.252850
                                CHANNELS 3 Zrotation Xrotation Yrotation
                                JOINT RightFinger01
                                {
                                    OFFSET  -3.088130   0.000000   0.000000
                                    CHANNELS 3 Zrotation Xrotation Yrotation
                                    JOINT RightFinger02
                                    {
                                        OFFSET  -2.639460   0.000000   0.000000
                                        CHANNELS 3 Zrotation Xrotation Yrotation
                                        End Site
                                        {
                                            OFFSET  -2.582190   0.000000   0.000000
                                        }
                                    }
                                }
                            }
                            JOINT RightFinger1
                            {
                                OFFSET  -8.364480   0.000000   3.252850
                                CHANNELS 3 Zrotation Xrotation Yrotation
                                JOINT RightFinger11
                                {
                                    OFFSET  -4.646930   0.000000   0.000000
                                    CHANNELS 3 Zrotation Xrotation Yrotation
                                    JOINT RightFinger12
                                    {
                                        OFFSET  -2.323470   0.000000   0.000000
                                        CHANNELS 3 Zrotation Xrotation Yrotation
                                        End Site
                                        {
                                            OFFSET  -2.273050   0.000000   0.000000
                                        }
                                    }
                                }
                            }
                            JOINT RightFinger2
                            {
                                OFFSET  -8.364480   0.000000   1.078090
                                CHANNELS 3 Zrotation Xrotation Yrotation
                                JOINT RightFinger21
                                {
                                    OFFSET  -5.111620   0.000000   0.000000
                                    CHANNELS 3 Zrotation Xrotation Yrotation
                                    JOINT RightFinger22
                                    {
                                        OFFSET  -2.788160   0.000000   0.000000
                                        CHANNELS 3 Zrotation Xrotation Yrotation
                                        End Site
                                        {
                                            OFFSET  -2.727660   0.000000   0.000000
                                        }
                                    }
                                }
                            }
                            JOINT RightFinger3
                            {
                                OFFSET  -7.899780   0.000000  -1.078090
                                CHANNELS 3 Zrotation Xrotation Yrotation
                                JOINT RightFinger31
                                {
                                    OFFSET  -4.646930   0.000000   0.000000
                                    CHANNELS 3 Zrotation Xrotation Yrotation
                                    JOINT RightFinger32
                                    {
                                        OFFSET  -2.323470   0.000000   0.000000
                                        CHANNELS 3 Zrotation Xrotation Yrotation
                                        End Site
                                        {
                                            OFFSET  -2.273050   0.000000   0.000000
                                        }
                                    }
                                }
                            }
                            JOINT RightFinger4
                            {
                                OFFSET  -7.435090   0.000000  -3.252850
                                CHANNELS 3 Zrotation Xrotation Yrotation
                                JOINT RightFinger41
                                {
                                    OFFSET  -3.717550   0.000000   0.000000
                                    CHANNELS 3 Zrotation Xrotation Yrotation
                                    JOINT RightFinger42
                                    {
                                        OFFSET  -1.858760   0.000000   0.000000
                                        CHANNELS 3 Zrotation Xrotation Yrotation
                                        End Site
                                        {
                                            OFFSET  -1.818440   0.000000   0.000000
                                        }
                                    }
                                }
                            }
                        }
                    }
                }
            }
        }
    }
    JOINT LeftHip
    {
        OFFSET   9.783030   0.000000   0.000000
        CHANNELS 3 Zrotation Xrotation Yrotation
        JOINT LeftKnee
        {
            OFFSET   0.000063 -41.789100   0.000608
            CHANNELS 3 Zrotation Xrotation Yrotation
            JOINT LeftAnkle
            {
                OFFSET   0.000048 -41.133200  -0.000184
                CHANNELS 3 Zrotation Xrotation Yrotation
                JOINT LeftToe
                {
                    OFFSET   0.000000  -6.358960  14.674500
                    CHANNELS 3 Zrotation Xrotation Yrotation
                    End Site
                    {
                        OFFSET   0.000000   0.000000   3.913200
                    }
                }
            }
        }
    }
    JOINT RightHip
    {
        OFFSET  -9.783030   0.000000   0.000000
        CHANNELS 3 Zrotation Xrotation Yrotation
        JOINT RightKnee
        {
            OFFSET   0.000071 -41.789100   0.001239
            CHANNELS 3 Zrotation Xrotation Yrotation
            JOINT RightAnkle
            {
                OFFSET   0.000037 -41.133200  -0.000166
                CHANNELS 3 Zrotation Xrotation Yrotation
                JOINT RightToe
                {
                    OFFSET   0.000000  -6.358960  14.674500
                    CHANNELS 3 Zrotation Xrotation Yrotation
                    End Site
                    {
                        OFFSET   0.000000   0.000000   3.913200
                    }
                }
            }
        }
    }
}
MOTION
Frames: 4
Frame Time:   0.016667
 -1.333890  89.932500  -1.417430  -4.628200 -11.676800 -15.674000  -0.552748   8.035900  -2.340620  -0.781112  16.087600  -4.673980  10.531700   0.191680  -0.035658  17.302300   0.350073  36.601800  -1.108930   2.618040   8.035830 -65.794900  31.049700 -12.181000  -5.404950 -11.003100 -14.743600  15.083500   1.088090   9.818770  37.103800  22.430400 -58.632300 -25.759400   0.007173   0.003540  -7.879730   0.006176  -0.012390 -33.025100  10.032800 -15.005400 -28.104200   0.001664  -0.020844 -19.673000  -0.002004  -0.013369 -28.926700   1.920940  -3.471770 -43.477700   0.029432  -0.023566 -28.956200   0.024172  -0.006346 -28.142500   1.873920  -3.497360 -33.464500   0.035626  -0.035505 -22.287400   0.029957  -0.013501 -30.616600   1.139380  -1.923450 -45.953600   0.019504  -0.045612 -30.605100   0.026610  -0.019490   0.834122  -3.788500   0.995220  50.879600 -22.320100  73.785300  -7.218490 -38.952300  98.329200  30.497200   1.279450   5.049820 -48.789700  47.213800  66.355800  36.271400  -0.016957  -0.026574  13.787400  -0.014660  -0.018982  76.412800   3.393440   0.806520  62.531600  -0.023218   0.023683  46.898700   0.002031   0.024842  81.445500  -0.066508  -0.014471  81.445600  -0.024980   0.063556  61.084100   0.032364   0.039909  89.169000  -5.002010  -0.072710  92.061800  -0.006544   0.033946  69.046400   0.022142   0.013278  88.984600  -9.999850  -0.176325 110.000000  -0.003210  -0.004825  80.000000  -0.006721   0.001742   2.297390  13.639700   5.021660  -0.127970   3.975400  18.355700  -6.550160  -6.589040   5.674330  -0.000000   0.000000  -0.000000   3.965200  10.202900  -8.932410  -0.575009   3.609710  -3.300060 -11.132500  -0.110420  11.832700   0.000000   0.000000  -0.000000
 -1.329690  89.943100  -1.450340  -4.629110 -11.664500 -15.696600  -0.556892   8.060280  -2.337140  -0.789364  16.136500  -4.664680  10.421000   0.085167  -0.015688  17.120300   0.155772  36.289600  -1.170380   2.538370   7.941560 -65.799100  31.011800 -12.150500  -5.410890 -10.976700 -14.749000  15.078900   1.086730   9.732040  37.109300  22.464800 -58.690200 -25.755100   0.011704   0.005714  -7.877570   0.007360  -0.015713 -33.047200  10.022100 -14.975700 -28.119100   0.001420  -0.024662 -19.683400  -0.001903  -0.016196 -28.940200   1.903780  -3.438230 -43.496000   0.036666  -0.033721 -28.968300   0.031016  -0.011273 -28.144300   1.856400  -3.464030 -33.486000   0.026526  -0.038202 -22.301700   0.024883  -0.017836 -30.635100   1.139530  -1.916430 -45.981300   0.011220  -0.023150 -30.623500   0.013923  -0.010014   1.057420  -3.591920   1.080690  51.884200 -21.544300  73.508300  -7.364530 -38.077400  99.321500  26.536000   6.101830   5.929660 -49.741300  47.578000  67.136200  35.758200  -0.013428  -0.016964  13.357900  -0.009329  -0.011386  75.463600   3.179890   0.820044  61.758700  -0.009248   0.008217  46.319000   0.002089   0.009273  79.936800  -0.031419  -0.009678  79.936900  -0.015360   0.029163  59.952600   0.012982   0.021102  89.374600  -5.009040  -0.055280  90.972800  -0.011041   0.047330  68.229600   0.031521   0.016849  88.984600  -9.999810  -0.176321 110.000000  -0.003158  -0.004859  80.000000  -0.006774   0.001684   2.303710  13.634500   5.054550  -0.127195   3.943540  18.348000  -6.554120  -6.564870   5.672870  -0.000000   0.000000  -0.000000   3.957930  10.207200  -8.901460  -0.562987   3.571870  -3.302810 -11.137700  -0.088085  11.829500   0.000000   0.000000   0.000000
 -1.329110  89.950500  -1.481690  -4.641920 -11.644700 -15.754900  -0.553214   8.084910  -2.325880  -0.782861  16.185500  -4.641300  10.307100  -0.032523   0.005972  16.932700  -0.059306  35.993800  -1.243690   2.452220   7.845030 -65.765700  31.019800 -12.150000  -5.445810 -10.989800 -14.753600  15.040100   1.129990   9.645450  37.141600  22.496300 -58.749200 -25.717000   0.026571   0.012858  -7.858540   0.014405  -0.026014 -33.041500  10.019600 -14.976500 -28.114500   0.001180  -0.028647 -19.680200  -0.001795  -0.019295 -28.934400   1.894240  -3.422050 -43.486200   0.042811  -0.037931 -28.961800   0.035487  -0.013701 -28.144900   1.847390  -3.447550 -33.470500   0.021343  -0.033301 -22.291400   0.020502  -0.016229 -30.631800   1.139840  -1.919790 -45.976400   0.006894  -0.009957 -30.620300   0.007078  -0.004676   1.310490  -3.399860   1.201660  52.630900 -20.721100  73.192800 -10.975800  -0.053370  89.781600  21.806400  10.571200   6.998140 -50.233500  47.669500  67.442600  35.281700  -0.007915  -0.008525  12.933200  -0.007412  -0.005272  74.998500   3.077070   0.820654  61.380100  -0.001869   0.001263  46.035100   0.002157   0.001707  78.956200  -0.024007  -0.012254  78.956500  -0.014268   0.016941  59.217300   0.005431   0.015755  89.290100  -5.017610  -0.066291  89.793700  -0.015122   0.033900  67.345300   0.022443   0.012232  88.984600  -9.999760  -0.176318 110.000000  -0.003092  -0.004889  80.000000  -0.006822   0.001631   2.316860  13.638100   5.081370  -0.131027   3.900290  18.363800  -6.558370  -6.543910   5.684220   0.000000   0.000000  -0.000000   3.957340  10.199700  -8.878510  -0.553648   3.544070  -3.296060 -11.141700  -0.072288  11.855200  -0.000000   0.000000  -0.000000
 -1.328970  89.956300  -1.510630  -4.666740 -11.623500 -15.846100  -0.543537   8.113610  -2.304530  -0.764863  16.242400  -4.600710  10.189200  -0.162144   0.029279  16.738900  -0.297120  35.702400  -1.325600   2.349640   7.750530 -65.729000  31.040800 -12.152400  -5.485310 -11.002500 -14.764700  14.989500   1.201250   9.564100  37.167700  22.515000 -58.781800 -25.650800   0.041710   0.020103  -7.825450   0.022546  -0.033448 -33.025400  10.019000 -14.983200 -28.101500   0.000945  -0.030808 -19.671100  -0.001682  -0.021063 -28.923700   1.890050  -3.415810 -43.470100   0.045857  -0.038858 -28.951100   0.037331  -0.014507 -28.145100   1.843690  -3.441020 -33.445100   0.019016  -0.024751 -22.274400   0.016796  -0.012700 -30.627200   1.140060  -1.923150 -45.969600   0.004812  -0.003614 -30.615800   0.004006  -0.002049   1.590180  -3.227630   1.363550  53.184300 -19.831500  72.820500  -7.422130 -36.302600 101.984000  16.563300  14.394400   8.479860 -50.597200  47.587700  67.697900  34.886400  -0.003984  -0.003542  12.572900  -0.006669  -0.001898  74.824400   3.037110   0.820830  61.238100   0.001371  -0.001224  45.928600   0.002223  -0.001367  78.139100  -0.018358  -0.014830  78.139300  -0.014112   0.013240  58.604400   0.002768   0.014089  88.814000  -5.023040  -0.113817  88.604800  -0.017627   0.019482  66.453700   0.009810   0.007154  88.984600  -9.999720  -0.176307 110.000000  -0.003022  -0.004918  80.000000  -0.006871   0.001582   2.332130  13.652500   5.102210  -0.136679   3.849950  18.408300  -6.560890  -6.525300   5.710590  -0.000000   0.000000   0.000000   3.961830  10.185400  -8.866450  -0.547186   3.523650  -3.272580 -11.145100  -0.060554  11.910900   0.000000   0.000000   0.000000
